<svg width="16" height="15" viewBox="0 0 16 15" fill="none" xmlns="http://www.w3.org/2000/svg">
<path d="M5.5 6.5625C5.36739 6.5625 5.24021 6.61189 5.14645 6.69979C5.05268 6.7877 5 6.90693 5 7.03125C5 7.15557 5.05268 7.2748 5.14645 7.36271C5.24021 7.45061 5.36739 7.5 5.5 7.5H10.5C10.6326 7.5 10.7598 7.45061 10.8536 7.36271C10.9473 7.2748 11 7.15557 11 7.03125C11 6.90693 10.9473 6.7877 10.8536 6.69979C10.7598 6.61189 10.6326 6.5625 10.5 6.5625H5.5ZM5 8.90625C5 8.78193 5.05268 8.6627 5.14645 8.57479C5.24021 8.48689 5.36739 8.4375 5.5 8.4375H10.5C10.6326 8.4375 10.7598 8.48689 10.8536 8.57479C10.9473 8.6627 11 8.78193 11 8.90625C11 9.03057 10.9473 9.1498 10.8536 9.23771C10.7598 9.32561 10.6326 9.375 10.5 9.375H5.5C5.36739 9.375 5.24021 9.32561 5.14645 9.23771C5.05268 9.1498 5 9.03057 5 8.90625ZM5 10.7812C5 10.6569 5.05268 10.5377 5.14645 10.4498C5.24021 10.3619 5.36739 10.3125 5.5 10.3125H7.5C7.63261 10.3125 7.75979 10.3619 7.85355 10.4498C7.94732 10.5377 8 10.6569 8 10.7812C8 10.9056 7.94732 11.0248 7.85355 11.1127C7.75979 11.2006 7.63261 11.25 7.5 11.25H5.5C5.36739 11.25 5.24021 11.2006 5.14645 11.1127C5.05268 11.0248 5 10.9056 5 10.7812Z" fill="#666666"/>
<path d="M9.5 0H4C3.46957 0 2.96086 0.197544 2.58579 0.549175C2.21071 0.900806 2 1.37772 2 1.875V13.125C2 13.6223 2.21071 14.0992 2.58579 14.4508C2.96086 14.8025 3.46957 15 4 15H12C12.5304 15 13.0391 14.8025 13.4142 14.4508C13.7893 14.0992 14 13.6223 14 13.125V4.21875L9.5 0ZM9.5 0.9375V2.8125C9.5 3.18546 9.65804 3.54315 9.93934 3.80687C10.2206 4.07059 10.6022 4.21875 11 4.21875H13V13.125C13 13.3736 12.8946 13.6121 12.7071 13.7879C12.5196 13.9637 12.2652 14.0625 12 14.0625H4C3.73478 14.0625 3.48043 13.9637 3.29289 13.7879C3.10536 13.6121 3 13.3736 3 13.125V1.875C3 1.62636 3.10536 1.3879 3.29289 1.21209C3.48043 1.03627 3.73478 0.9375 4 0.9375H9.5Z" fill="#666666"/>
</svg>
