<svg width="16" height="16" viewBox="0 0 16 16" fill="none" xmlns="http://www.w3.org/2000/svg">
<path d="M8.00003 4.75401C7.57376 4.75401 7.15166 4.83797 6.75784 5.00109C6.36402 5.16422 6.00618 5.40332 5.70476 5.70474C5.40334 6.00616 5.16424 6.36399 5.00112 6.75781C4.83799 7.15164 4.75403 7.57373 4.75403 8.00001C4.75403 8.42628 4.83799 8.84837 5.00112 9.2422C5.16424 9.63602 5.40334 9.99386 5.70476 10.2953C6.00618 10.5967 6.36402 10.8358 6.75784 10.9989C7.15166 11.162 7.57376 11.246 8.00003 11.246C8.86092 11.246 9.68655 10.904 10.2953 10.2953C10.904 9.68653 11.246 8.8609 11.246 8.00001C11.246 7.13911 10.904 6.31348 10.2953 5.70474C9.68655 5.09599 8.86092 4.75401 8.00003 4.75401ZM5.75403 8.00001C5.75403 7.40433 5.99066 6.83305 6.41187 6.41184C6.83307 5.99064 7.40435 5.75401 8.00003 5.75401C8.5957 5.75401 9.16698 5.99064 9.58819 6.41184C10.0094 6.83305 10.246 7.40433 10.246 8.00001C10.246 8.59568 10.0094 9.16696 9.58819 9.58817C9.16698 10.0094 8.5957 10.246 8.00003 10.246C7.40435 10.246 6.83307 10.0094 6.41187 9.58817C5.99066 9.16696 5.75403 8.59568 5.75403 8.00001Z" fill="#666666"/>
<path d="M9.79599 1.343C9.26899 -0.446996 6.73099 -0.446996 6.20399 1.343L6.10999 1.662C6.07318 1.78696 6.00889 1.90209 5.9218 1.99896C5.83472 2.09584 5.72707 2.17199 5.60673 2.22186C5.48639 2.27172 5.35642 2.29402 5.22634 2.28712C5.09627 2.28023 4.96938 2.24431 4.85499 2.182L4.56299 2.022C2.92299 1.13 1.12999 2.924 2.02299 4.563L2.18199 4.855C2.24429 4.9694 2.28021 5.09628 2.28711 5.22636C2.294 5.35643 2.2717 5.48641 2.22184 5.60674C2.17198 5.72708 2.09582 5.83474 1.99895 5.92182C1.90207 6.0089 1.78694 6.0732 1.66199 6.11L1.34299 6.204C-0.447012 6.731 -0.447012 9.269 1.34299 9.796L1.66199 9.89C1.78694 9.92681 1.90207 9.99111 1.99895 10.0782C2.09582 10.1653 2.17198 10.2729 2.22184 10.3933C2.2717 10.5136 2.294 10.6436 2.28711 10.7736C2.28021 10.9037 2.24429 11.0306 2.18199 11.145L2.02199 11.437C1.12999 13.077 2.92299 14.871 4.56299 13.977L4.85499 13.818C4.96938 13.7557 5.09627 13.7198 5.22634 13.7129C5.35642 13.706 5.48639 13.7283 5.60673 13.7782C5.72707 13.828 5.83472 13.9042 5.9218 14.001C6.00889 14.0979 6.07318 14.2131 6.10999 14.338L6.20399 14.657C6.73099 16.447 9.26899 16.447 9.79599 14.657L9.88999 14.338C9.92679 14.2131 9.99109 14.0979 10.0782 14.001C10.1653 13.9042 10.2729 13.828 10.3932 13.7782C10.5136 13.7283 10.6436 13.706 10.7736 13.7129C10.9037 13.7198 11.0306 13.7557 11.145 13.818L11.437 13.978C13.077 14.871 14.871 13.076 13.977 11.437L13.818 11.145C13.7557 11.0306 13.7198 10.9037 13.7129 10.7736C13.706 10.6436 13.7283 10.5136 13.7781 10.3933C13.828 10.2729 13.9042 10.1653 14.001 10.0782C14.0979 9.99111 14.213 9.92681 14.338 9.89L14.657 9.796C16.447 9.269 16.447 6.731 14.657 6.204L14.338 6.11C14.213 6.0732 14.0979 6.0089 14.001 5.92182C13.9042 5.83474 13.828 5.72708 13.7781 5.60674C13.7283 5.48641 13.706 5.35643 13.7129 5.22636C13.7198 5.09628 13.7557 4.9694 13.818 4.855L13.978 4.563C14.871 2.923 13.076 1.13 11.437 2.023L11.145 2.182C11.0306 2.24431 10.9037 2.28023 10.7736 2.28712C10.6436 2.29402 10.5136 2.27172 10.3932 2.22186C10.2729 2.17199 10.1653 2.09584 10.0782 1.99896C9.99109 1.90209 9.92679 1.78696 9.88999 1.662L9.79599 1.343ZM7.16299 1.626C7.40899 0.791004 8.59099 0.791004 8.83699 1.626L8.93099 1.945C9.01001 2.21309 9.14802 2.46009 9.33491 2.6679C9.5218 2.87571 9.75283 3.03907 10.0111 3.14598C10.2693 3.2529 10.5482 3.30067 10.8273 3.28579C11.1064 3.27092 11.3786 3.19377 11.624 3.06L11.915 2.9C12.679 2.485 13.515 3.32 13.099 4.085L12.94 4.377C12.8064 4.62243 12.7295 4.89463 12.7148 5.17366C12.7 5.45269 12.7479 5.73147 12.8549 5.98959C12.9619 6.2477 13.1253 6.47861 13.3332 6.66538C13.541 6.85215 13.788 6.99006 14.056 7.069L14.374 7.163C15.209 7.409 15.209 8.591 14.374 8.837L14.055 8.931C13.7869 9.01002 13.5399 9.14804 13.3321 9.33493C13.1243 9.52182 12.9609 9.75285 12.854 10.0111C12.7471 10.2693 12.6993 10.5482 12.7142 10.8273C12.7291 11.1064 12.8062 11.3786 12.94 11.624L13.1 11.915C13.515 12.679 12.68 13.515 11.915 13.099L11.624 12.94C11.3785 12.8063 11.1062 12.7291 10.8271 12.7143C10.5479 12.6995 10.269 12.7474 10.0108 12.8544C9.75253 12.9614 9.52151 13.1249 9.33467 13.3328C9.14783 13.5407 9.00989 13.7878 8.93099 14.056L8.83699 14.374C8.59099 15.209 7.40899 15.209 7.16299 14.374L7.06899 14.055C6.98993 13.7871 6.85194 13.5402 6.66512 13.3325C6.4783 13.1248 6.24738 12.9615 5.98928 12.8546C5.73118 12.7477 5.45243 12.6999 5.17346 12.7147C4.89448 12.7294 4.62235 12.8064 4.37699 12.94L4.08499 13.1C3.32099 13.515 2.48499 12.68 2.90099 11.915L3.05999 11.624C3.19394 11.3786 3.27124 11.1062 3.28621 10.827C3.30119 10.5478 3.25346 10.2688 3.14653 10.0104C3.0396 9.75209 2.87618 9.52095 2.66827 9.33399C2.46035 9.14703 2.21321 9.00899 1.94499 8.93L1.62599 8.836C0.790988 8.59 0.790988 7.408 1.62599 7.162L1.94499 7.068C2.21279 6.98891 2.45953 6.85094 2.66713 6.66419C2.87473 6.47744 3.03795 6.24663 3.14484 5.98866C3.25173 5.73069 3.29959 5.45208 3.2849 5.17322C3.27022 4.89437 3.19338 4.62233 3.05999 4.377L2.89999 4.085C2.48499 3.321 3.31999 2.485 4.08499 2.901L4.37699 3.06C4.62235 3.19358 4.89448 3.27058 5.17346 3.28536C5.45243 3.30014 5.73118 3.25232 5.98928 3.14542C6.24738 3.03852 6.4783 2.87523 6.66512 2.66752C6.85194 2.45982 6.98993 2.21295 7.06899 1.945L7.16299 1.626Z" fill="#666666"/>
</svg>
